<svg width="604" height="195" viewBox="0 0 604 195" fill="none" xmlns="http://www.w3.org/2000/svg">
<path d="M0 128L87 0V21.1064L19.7882 119.149H81.2L69.9412 128H0Z" fill="url(#paint0_linear_5_19)"/>
<path d="M87.2203 39.396L44.0077 101.601L38.0684 110.043L99.3275 110.043L22.3213 178.265L22.3213 192.608L122.838 101.601L57.4729 101.601L87.2203 58.2742L87.2203 39.396Z" fill="url(#paint1_linear_5_19)"/>
<path d="M172.752 130.64C169.339 130.64 166.16 130.085 163.216 128.976C160.315 127.824 157.776 126.224 155.6 124.176C153.467 122.085 151.803 119.632 150.608 116.816C149.413 114 148.816 110.928 148.816 107.6C148.816 104.272 149.413 101.2 150.608 98.384C151.803 95.568 153.488 93.136 155.664 91.088C157.84 88.9973 160.379 87.3973 163.28 86.288C166.181 85.136 169.36 84.56 172.816 84.56C176.485 84.56 179.835 85.2 182.864 86.48C185.893 87.7173 188.453 89.5733 190.544 92.048L185.168 97.104C183.547 95.3547 181.733 94.0533 179.728 93.2C177.723 92.304 175.547 91.856 173.2 91.856C170.853 91.856 168.699 92.24 166.736 93.008C164.816 93.776 163.131 94.864 161.68 96.272C160.272 97.68 159.163 99.344 158.352 101.264C157.584 103.184 157.2 105.296 157.2 107.6C157.2 109.904 157.584 112.016 158.352 113.936C159.163 115.856 160.272 117.52 161.68 118.928C163.131 120.336 164.816 121.424 166.736 122.192C168.699 122.96 170.853 123.344 173.2 123.344C175.547 123.344 177.723 122.917 179.728 122.064C181.733 121.168 183.547 119.824 185.168 118.032L190.544 123.152C188.453 125.584 185.893 127.44 182.864 128.72C179.835 130 176.464 130.64 172.752 130.64ZM217.14 95.44C219.871 95.44 222.303 95.9733 224.436 97.04C226.612 98.1067 228.319 99.7493 229.556 101.968C230.793 104.144 231.412 106.96 231.412 110.416V130H223.412V111.44C223.412 108.411 222.687 106.149 221.236 104.656C219.828 103.163 217.844 102.416 215.284 102.416C213.407 102.416 211.743 102.8 210.292 103.568C208.841 104.336 207.711 105.488 206.9 107.024C206.132 108.517 205.748 110.416 205.748 112.72V130H197.748V82.512H205.748V105.04L204.02 102.224C205.215 100.048 206.943 98.384 209.204 97.232C211.508 96.0373 214.153 95.44 217.14 95.44ZM262.617 130V123.088L262.169 121.616V109.52C262.169 107.173 261.465 105.36 260.057 104.08C258.649 102.757 256.515 102.096 253.657 102.096C251.737 102.096 249.838 102.395 247.961 102.992C246.126 103.589 244.569 104.421 243.289 105.488L240.153 99.664C241.987 98.256 244.163 97.2107 246.681 96.528C249.241 95.8027 251.886 95.44 254.617 95.44C259.566 95.44 263.385 96.6347 266.073 99.024C268.803 101.371 270.169 105.019 270.169 109.968V130H262.617ZM251.865 130.448C249.305 130.448 247.065 130.021 245.145 129.168C243.225 128.272 241.731 127.056 240.665 125.52C239.641 123.941 239.129 122.171 239.129 120.208C239.129 118.288 239.577 116.56 240.473 115.024C241.411 113.488 242.926 112.272 245.017 111.376C247.107 110.48 249.881 110.032 253.337 110.032H263.257V115.344H253.913C251.182 115.344 249.347 115.792 248.409 116.688C247.47 117.541 247.001 118.608 247.001 119.888C247.001 121.339 247.577 122.491 248.729 123.344C249.881 124.197 251.481 124.624 253.529 124.624C255.491 124.624 257.241 124.176 258.777 123.28C260.355 122.384 261.486 121.061 262.169 119.312L263.513 124.112C262.745 126.117 261.358 127.675 259.353 128.784C257.39 129.893 254.894 130.448 251.865 130.448ZM280.436 130V95.824H288.052V105.232L287.156 102.48C288.18 100.176 289.78 98.4267 291.956 97.232C294.174 96.0373 296.926 95.44 300.212 95.44V103.056C299.87 102.971 299.55 102.928 299.252 102.928C298.953 102.885 298.654 102.864 298.356 102.864C295.326 102.864 292.916 103.76 291.124 105.552C289.332 107.301 288.436 109.925 288.436 113.424V130H280.436ZM322.174 142.864C319.016 142.864 315.923 142.437 312.894 141.584C309.907 140.773 307.454 139.579 305.534 138L309.118 131.984C310.611 133.221 312.488 134.203 314.75 134.928C317.054 135.696 319.379 136.08 321.726 136.08C325.48 136.08 328.232 135.205 329.982 133.456C331.731 131.749 332.606 129.168 332.606 125.712V119.632L333.246 111.888L332.99 104.144V95.824H340.606V124.816C340.606 131.003 339.027 135.547 335.87 138.448C332.712 141.392 328.147 142.864 322.174 142.864ZM321.15 128.464C317.907 128.464 314.963 127.781 312.318 126.416C309.715 125.008 307.646 123.067 306.11 120.592C304.616 118.117 303.87 115.216 303.87 111.888C303.87 108.603 304.616 105.723 306.11 103.248C307.646 100.773 309.715 98.8533 312.318 97.488C314.963 96.1227 317.907 95.44 321.15 95.44C324.051 95.44 326.654 96.016 328.958 97.168C331.262 98.32 333.096 100.112 334.462 102.544C335.87 104.976 336.574 108.091 336.574 111.888C336.574 115.685 335.87 118.821 334.462 121.296C333.096 123.728 331.262 125.541 328.958 126.736C326.654 127.888 324.051 128.464 321.15 128.464ZM322.366 121.68C324.371 121.68 326.163 121.275 327.742 120.464C329.32 119.611 330.536 118.459 331.39 117.008C332.286 115.515 332.734 113.808 332.734 111.888C332.734 109.968 332.286 108.283 331.39 106.832C330.536 105.339 329.32 104.208 327.742 103.44C326.163 102.629 324.371 102.224 322.366 102.224C320.36 102.224 318.547 102.629 316.926 103.44C315.347 104.208 314.11 105.339 313.214 106.832C312.36 108.283 311.934 109.968 311.934 111.888C311.934 113.808 312.36 115.515 313.214 117.008C314.11 118.459 315.347 119.611 316.926 120.464C318.547 121.275 320.36 121.68 322.366 121.68ZM367.187 130.448C363.39 130.448 360.062 129.701 357.203 128.208C354.387 126.672 352.19 124.581 350.611 121.936C349.075 119.291 348.307 116.283 348.307 112.912C348.307 109.499 349.054 106.491 350.547 103.888C352.083 101.243 354.174 99.1733 356.819 97.68C359.507 96.1867 362.558 95.44 365.971 95.44C369.299 95.44 372.264 96.1653 374.867 97.616C377.47 99.0667 379.518 101.115 381.011 103.76C382.504 106.405 383.251 109.52 383.251 113.104C383.251 113.445 383.23 113.829 383.187 114.256C383.187 114.683 383.166 115.088 383.123 115.472H354.643V110.16H378.899L375.763 111.824C375.806 109.861 375.4 108.133 374.547 106.64C373.694 105.147 372.52 103.973 371.027 103.12C369.576 102.267 367.891 101.84 365.971 101.84C364.008 101.84 362.28 102.267 360.787 103.12C359.336 103.973 358.184 105.168 357.331 106.704C356.52 108.197 356.115 109.968 356.115 112.016V113.296C356.115 115.344 356.584 117.157 357.523 118.736C358.462 120.315 359.784 121.531 361.491 122.384C363.198 123.237 365.16 123.664 367.379 123.664C369.299 123.664 371.027 123.365 372.563 122.768C374.099 122.171 375.464 121.232 376.659 119.952L380.947 124.88C379.411 126.672 377.47 128.059 375.123 129.04C372.819 129.979 370.174 130.448 367.187 130.448ZM405.592 130.64C402.093 130.64 398.744 130.149 395.544 129.168C392.344 128.144 389.805 126.843 387.928 125.264L390.808 118.8C392.6 120.208 394.818 121.381 397.464 122.32C400.109 123.259 402.818 123.728 405.592 123.728C407.938 123.728 409.837 123.472 411.288 122.96C412.738 122.448 413.805 121.765 414.488 120.912C415.17 120.016 415.512 119.013 415.512 117.904C415.512 116.539 415.021 115.451 414.04 114.64C413.058 113.787 411.778 113.125 410.2 112.656C408.664 112.144 406.936 111.675 405.016 111.248C403.138 110.821 401.24 110.331 399.32 109.776C397.442 109.179 395.714 108.432 394.135 107.536C392.6 106.597 391.341 105.36 390.36 103.824C389.378 102.288 388.888 100.325 388.888 97.936C388.888 95.504 389.528 93.2853 390.808 91.28C392.13 89.232 394.114 87.6107 396.76 86.416C399.448 85.1787 402.84 84.56 406.936 84.56C409.624 84.56 412.29 84.9013 414.936 85.584C417.581 86.2667 419.885 87.248 421.847 88.528L419.224 94.992C417.218 93.7973 415.149 92.9227 413.016 92.368C410.882 91.7707 408.834 91.472 406.872 91.472C404.568 91.472 402.69 91.7493 401.24 92.304C399.832 92.8587 398.786 93.584 398.104 94.48C397.464 95.376 397.144 96.4 397.144 97.552C397.144 98.9173 397.613 100.027 398.552 100.88C399.533 101.691 400.792 102.331 402.328 102.8C403.906 103.269 405.656 103.739 407.576 104.208C409.496 104.635 411.394 105.125 413.272 105.68C415.192 106.235 416.92 106.96 418.456 107.856C420.034 108.752 421.293 109.968 422.232 111.504C423.213 113.04 423.704 114.981 423.704 117.328C423.704 119.717 423.042 121.936 421.72 123.984C420.44 125.989 418.456 127.611 415.768 128.848C413.08 130.043 409.688 130.64 405.592 130.64ZM438.113 130L425.569 95.824H433.121L443.873 125.968H440.289L451.553 95.824H458.273L469.217 125.968H465.697L476.769 95.824H483.873L471.265 130H463.585L453.601 103.312H455.969L445.793 130H438.113ZM509.367 130V123.088L508.919 121.616V109.52C508.919 107.173 508.215 105.36 506.807 104.08C505.399 102.757 503.265 102.096 500.407 102.096C498.487 102.096 496.588 102.395 494.711 102.992C492.876 103.589 491.319 104.421 490.039 105.488L486.903 99.664C488.737 98.256 490.913 97.2107 493.431 96.528C495.991 95.8027 498.636 95.44 501.367 95.44C506.316 95.44 510.135 96.6347 512.823 99.024C515.553 101.371 516.919 105.019 516.919 109.968V130H509.367ZM498.615 130.448C496.055 130.448 493.815 130.021 491.895 129.168C489.975 128.272 488.481 127.056 487.415 125.52C486.391 123.941 485.879 122.171 485.879 120.208C485.879 118.288 486.327 116.56 487.223 115.024C488.161 113.488 489.676 112.272 491.767 111.376C493.857 110.48 496.631 110.032 500.087 110.032H510.007V115.344H500.663C497.932 115.344 496.097 115.792 495.159 116.688C494.22 117.541 493.751 118.608 493.751 119.888C493.751 121.339 494.327 122.491 495.479 123.344C496.631 124.197 498.231 124.624 500.279 124.624C502.241 124.624 503.991 124.176 505.527 123.28C507.105 122.384 508.236 121.061 508.919 119.312L510.263 124.112C509.495 126.117 508.108 127.675 506.103 128.784C504.14 129.893 501.644 130.448 498.615 130.448ZM546.13 130.448C543.356 130.448 540.818 129.808 538.514 128.528C536.252 127.248 534.439 125.328 533.074 122.768C531.751 120.165 531.09 116.88 531.09 112.912C531.09 108.901 531.73 105.616 533.01 103.056C534.332 100.496 536.124 98.5973 538.385 97.36C540.647 96.08 543.228 95.44 546.13 95.44C549.5 95.44 552.466 96.1653 555.026 97.616C557.628 99.0667 559.676 101.093 561.17 103.696C562.706 106.299 563.474 109.371 563.474 112.912C563.474 116.453 562.706 119.547 561.17 122.192C559.676 124.795 557.628 126.821 555.026 128.272C552.466 129.723 549.5 130.448 546.13 130.448ZM527.186 142.416V95.824H534.802V103.888L534.546 112.976L535.186 122.064V142.416H527.186ZM545.234 123.6C547.154 123.6 548.86 123.173 550.354 122.32C551.89 121.467 553.106 120.229 554.002 118.608C554.898 116.987 555.346 115.088 555.346 112.912C555.346 110.693 554.898 108.795 554.002 107.216C553.106 105.595 551.89 104.357 550.354 103.504C548.86 102.651 547.154 102.224 545.234 102.224C543.314 102.224 541.586 102.651 540.05 103.504C538.514 104.357 537.298 105.595 536.402 107.216C535.506 108.795 535.058 110.693 535.058 112.912C535.058 115.088 535.506 116.987 536.402 118.608C537.298 120.229 538.514 121.467 540.05 122.32C541.586 123.173 543.314 123.6 545.234 123.6Z" fill="white"/>
<defs>
<linearGradient id="paint0_linear_5_19" x1="43.5" y1="0" x2="43.5" y2="128" gradientUnits="userSpaceOnUse">
<stop stop-color="#47BBE1"/>
<stop offset="1" stop-color="#8FE3CF"/>
</linearGradient>
<linearGradient id="paint1_linear_5_19" x1="74.483" y1="39.1555" x2="71.5675" y2="193.538" gradientUnits="userSpaceOnUse">
<stop stop-color="#47BBE1"/>
<stop offset="1" stop-color="#8FE3CF"/>
</linearGradient>
</defs>
</svg>
